<svg xmlns="http://www.w3.org/2000/svg" xmlns:xlink="http://www.w3.org/1999/xlink" width="64" height="63" viewBox="0 0 64 63"><defs><path id="a" d="M1511.95 2699.73c-3.48-.1-6.18.26-8.44 1.22-.66.26-1.7.26-1.79 1.09.35.35.4.92.7 1.4.52.87 1.43 2.05 2.26 2.66.92.7 1.83 1.4 2.79 2 1.7 1.05 3.61 1.67 5.26 2.71.96.61 1.92 1.4 2.88 2.06.48.34.78.91 1.39 1.13v-.13c-.3-.4-.4-.96-.7-1.4l-1.3-1.26a20.67 20.67 0 0 0-4.53-4.41c-1.4-.96-4.44-2.27-5-3.89l-.1-.08c.97-.1 2.1-.44 3.01-.7 1.48-.4 2.83-.3 4.35-.7.7-.18 1.4-.4 2.1-.61v-.4c-.79-.78-1.36-1.83-2.18-2.57a58.03 58.03 0 0 0-7.18-5.37c-1.35-.87-3.1-1.44-4.53-2.18-.52-.26-1.4-.4-1.7-.83-.78-.96-1.22-2.23-1.78-3.36-1.27-2.4-2.49-5.07-3.57-7.6-.79-1.7-1.27-3.4-2.22-4.97-4.49-7.42-9.36-11.92-16.85-16.33-1.61-.92-3.52-1.3-5.57-1.79-1.09-.04-2.18-.13-3.27-.17-.7-.3-1.39-1.14-2-1.53-2.48-1.57-8.88-4.98-10.7-.48-1.18 2.84 1.74 5.63 2.74 7.07.74 1 1.7 2.14 2.22 3.27.3.75.39 1.53.7 2.32.69 1.92 1.34 4.06 2.26 5.85.48.91 1 1.87 1.6 2.7.36.48.96.7 1.1 1.49-.61.87-.66 2.18-1 3.27-1.57 4.93-.96 11.04 1.26 14.67.7 1.09 2.35 3.49 4.57 2.57 1.96-.78 1.52-3.27 2.09-5.45.13-.53.04-.88.3-1.23v.1c.61 1.21 1.22 2.4 1.79 3.61a24.9 24.9 0 0 0 5.65 5.85c1.05.79 1.88 2.14 3.18 2.62v-.13h-.08c-.27-.4-.66-.57-1-.87a21.17 21.17 0 0 1-2.27-2.62 56.18 56.18 0 0 1-4.87-7.94c-.7-1.36-1.31-2.84-1.88-4.2-.26-.52-.26-1.3-.7-1.57-.65.96-1.6 1.8-2.08 2.97-.83 1.88-.92 4.2-1.22 6.6-.18.04-.09 0-.18.08-1.39-.35-1.87-1.79-2.39-3.01-1.3-3.1-1.52-8.08-.4-11.66.31-.91 1.62-3.8 1.1-4.67-.26-.83-1.13-1.3-1.61-1.96a17.6 17.6 0 0 1-1.57-2.8c-1.05-2.44-1.57-5.15-2.7-7.59-.52-1.14-1.44-2.31-2.18-3.36-.82-1.18-1.74-2-2.39-3.4-.22-.49-.52-1.27-.17-1.8.08-.34.26-.48.6-.56.57-.48 2.18.13 2.75.39 1.6.65 2.96 1.27 4.3 2.18.62.44 1.27 1.27 2.05 1.49h.92c1.39.3 2.96.08 4.26.48 2.31.74 4.4 1.83 6.27 3a38.69 38.69 0 0 1 13.58 14.94c.52 1 .74 1.92 1.22 2.97.91 2.13 2.05 4.32 2.96 6.41.91 2.05 1.79 4.15 3.1 5.85.64.92 3.26 1.4 4.43 1.88.87.4 2.22.74 3 1.22 1.48.92 2.96 1.96 4.36 2.97.7.52 2.87 1.61 3 2.49z"/><path id="b" d="M1467.54 2662c-.64 0-1.09.08-1.54.2v.1h.08c.3.66.82 1.12 1.2 1.7.3.67.56 1.33.86 2l.07-.08c.53-.42.79-1.09.79-2.09-.23-.29-.26-.58-.45-.87-.22-.42-.71-.63-1.01-.96z"/></defs><use fill="#00546b" xlink:href="#a" transform="translate(-1453 -2651)"/><use fill="#00546b" xlink:href="#b" transform="translate(-1453 -2651)"/></svg>