<svg xmlns="http://www.w3.org/2000/svg" xmlns:xlink="http://www.w3.org/1999/xlink" width="64" height="66" viewBox="0 0 64 66"><defs><path id="a" d="M469.83 2880.54a3.25 3.25 0 0 0-2.7-2.18 6.17 6.17 0 0 0-2.15.12c-1.45.3-2.52.42-3.31.44a63.95 63.95 0 0 0 6.77-16.1c2.24-8.7 1.04-12.66-.36-14.45-3.71-4.74-9.12-7.29-15.66-7.37-3.48-.04-6.54.65-8.13 1.14-1.49-.26-3.09-.4-4.76-.43-3.14-.05-5.92.63-8.3 2.04a37.83 37.83 0 0 0-5.85-1.47c-5.72-.94-10.33-.2-13.7 2.18-4.1 2.88-5.99 7.9-5.64 14.9.11 2.23 1.36 9 3.31 15.42a53.23 53.23 0 0 0 3.57 9.1c1.76 3.34 3.65 5.3 5.76 6.01 1.19.4 3.34.67 5.6-1.21.3.34.68.7 1.19 1.01.64.4 1.43.74 2.22.94 2.84.71 5.5.53 7.78-.46a161.33 161.33 0 0 1 .08 2.69c.14 3.35.36 5.96 1.04 7.78l.14.41c.34 1.04.9 2.76 2.33 4.12A6.96 6.96 0 0 0 444 2907c.82 0 1.61-.1 2.3-.26 2.46-.52 5.26-1.33 7.28-4.2 1.91-2.73 2.84-6.83 3-13.29l.07-.52.04-.34.45.03.12.01c2.5.12 5.57-.41 7.45-1.29 1.49-.69 6.25-3.2 5.13-6.6"/><path id="b" d="M465.34 2881.13c-7.4 1.53-7.9-.97-7.9-.97 7.8-11.6 11.07-26.3 8.25-29.9-7.68-9.82-20.99-5.18-21.2-5.06l-.08.01c-1.46-.3-3.1-.48-4.93-.5-3.35-.06-5.89.87-7.82 2.33 0 0-23.73-9.78-22.62 12.3.23 4.7 6.73 35.53 14.47 26.22 2.84-3.41 5.57-6.29 5.57-6.29a7.18 7.18 0 0 0 4.7 1.2l.13-.11c-.05.42-.03.83.05 1.32-2 2.23-1.41 2.62-5.4 3.45-4.04.83-1.67 2.3-.12 2.7 1.88.47 6.22 1.13 9.16-2.98l-.12.47c.78.63 1.33 4.08 1.24 7.2-.1 3.13-.15 5.27.46 6.95.62 1.68 1.23 5.45 6.48 4.32 4.38-.94 6.65-3.37 6.97-7.43.22-2.89.73-2.46.76-5.04l.4-1.22c.48-3.92.08-5.18 2.78-4.59l.66.06c1.99.09 4.59-.32 6.11-1.03 3.29-1.53 5.24-4.08 2-3.4"/><path id="c" d="M432.6 2861.03c-.58-.08-1.12 0-1.38.2a.52.52 0 0 0-.22.35c-.03.25.14.53.24.67.3.4.73.68 1.16.74l.18.01c.71 0 1.36-.57 1.42-.99.07-.52-.68-.87-1.4-.98"/><path id="d" d="M455 2861.54c-.06-.48-.85-.62-1.6-.5-.74.1-1.46.47-1.4.95.05.37.67 1.01 1.4 1.01l.2-.01c.48-.08.84-.42 1.01-.61.26-.3.41-.63.39-.84"/><path id="e" d="M458.5 2884.53c-1.87.1-2.82-.2-3.04-.39-.1-2.14.7-2.37 1.55-2.6l.39-.12.25.18c1.5 1 4.18 1.1 7.95.32h.04c-.5.47-1.38 1.1-2.61 1.68-1.07.49-2.84.86-4.53.93zm-18.91 14.87c-.62-1.53-.92-8.41-.7-16.02a3.83 3.83 0 0 0-.15-.83 3.72 3.72 0 0 0-2.03-2.41 2.86 2.86 0 0 0-1.86-.23c.17-.7.48-1.51.8-2.39l.14-.36c.15-.42.35-.84.55-1.3 1.1-2.44 2.62-5.8.98-13.37-.62-2.84-2.67-4.22-5.79-3.9a13.38 13.38 0 0 0-4.94 1.64c.24-2.86 1.14-8.2 4.5-11.58 2.12-2.13 4.94-3.18 8.37-3.12 6.77.11 11.11 3.57 13.56 6.46a20.5 20.5 0 0 1 3.71 6.34c-3.43-.35-5.76.33-6.95 2.01-2.57 3.67 1.41 10.78 3.33 14.2.35.63.65 1.17.74 1.4a12.7 12.7 0 0 0 2.02 3.24l.5.63c-1.05.3-2.91 1-2.74 4.44-.14 1.73-1.12 9.83-1.61 12.69-.66 3.78-2.05 5.19-5.98 6.03-4.06.86-5.5-1.2-6.45-3.57zm-12.18-13.1c.23-.1.62-.24 1.3-.38 3.33-.69 3.85-1.17 4.97-2.6.26-.32.55-.69.95-1.14.6-.67.88-.56 1.38-.35.4.17.8.67.96 1.23.07.26.16.76-.12 1.15-2.35 3.28-5.76 3.23-8.21 2.62-.5-.12-.96-.34-1.23-.52zm-1.06-15.35c.47-3.38.3-6.33.2-7.9l-.03-.57c.77-.68 4.32-2.58 6.86-2 1.15.26 1.86 1.05 2.15 2.4 1.52 6.99.2 9.9-.86 12.24-.21.48-.42.94-.6 1.4l-.13.37c-.35.92-.67 1.78-.87 2.6a6.56 6.56 0 0 1-4.7-2.08 7.7 7.7 0 0 1-2.02-6.46zm-6.4 15.22c-2.18-.72-4.7-5.3-6.93-12.58-1.93-6.3-3.06-12.62-3.15-14.4-.28-5.6 1.09-9.52 4.06-11.62 4.84-3.42 12.8-1.37 16-.33l-.15.13c-5.24 5.28-5.12 14.3-5.1 14.85 0 .21.01.52.04.93.09 1.52.25 4.34-.2 7.54a9.51 9.51 0 0 0 3.18 8.6c-.9.95-2.85 3.07-4.93 5.57-1.47 1.76-2.49 1.42-2.82 1.31zm45.1-35.44c2.28 2.91-.24 16.16-7.52 27.58l-.22-.27-.1-.12c1.89-3.1 1.52-6.16 1.2-8.88a21.26 21.26 0 0 1-.24-3.16c.04-1.05.17-1.95.3-2.82.17-1.07.34-2.18.3-3.49.03-.14.05-.3.03-.49-.12-1.25-1.56-5-4.49-8.4a20.18 20.18 0 0 0-7.12-5.34 24.1 24.1 0 0 1 5.35-.5c5.32.11 9.52 2.1 12.5 5.9zm-8.39 12.05c-.14.93-.29 1.88-.32 3.04-.04 1.13.1 2.3.24 3.44.27 2.29.56 4.65-.54 6.98-.17-.3-.34-.64-.49-1a19.5 19.5 0 0 0-.84-1.6c-1.6-2.85-5.33-9.52-3.42-12.25.57-.81 2.02-1.65 5.65-1.2-.02.91-.14 1.73-.28 2.6zm8.57 17.35c-4.49.92-6.1.28-6.63-.1a61.43 61.43 0 0 0 7.91-17.69 33.47 33.47 0 0 0 1.18-7.6c.03-2.35-.37-4.08-1.2-5.14-3.34-4.25-8.25-6.54-14.18-6.6-4.08-.04-7.53 1-8.2 1.29a20.5 20.5 0 0 0-4.62-.6c-3.06-.04-5.7.7-7.9 2.18a35.4 35.4 0 0 0-6.43-1.68c-5.2-.83-9.34-.2-12.29 1.88-3.52 2.5-5.15 6.94-4.83 13.22.1 2.1 1.31 8.6 3.22 14.83 2.5 8.2 5.23 12.83 8.1 13.79.34.11.73.19 1.16.19 1.04 0 2.33-.47 3.66-2.07 2.22-2.66 4.29-4.89 5.05-5.7 1.13.6 2.37.94 3.64.97v.1c-.25.3-.46.57-.63.8-.88 1.1-1.06 1.34-3.9 1.92-.8.16-2.93.6-2.96 2.1-.04 1.62 2.52 2.3 2.81 2.38 1.02.25 2 .38 2.93.38 2.27 0 4.27-.75 5.86-2.18-.04 5.8.2 11.54.9 13.28.57 1.43 1.97 4.92 6.4 4.92.65 0 1.36-.08 2.15-.24 4.62-.99 6.62-3.02 7.4-7.51.41-2.4 1.13-8.12 1.46-11.2.7.23 1.62.33 2.6.33 2.06 0 4.43-.44 5.91-1.12 1.67-.78 4.68-2.67 4.13-4.32-.28-.85-1.19-1.12-2.7-.81z"/></defs><use xlink:href="#a" transform="translate(-406 -2841)"/><use fill="#336791" xlink:href="#b" transform="translate(-406 -2841)"/><use fill="#fff" xlink:href="#c" transform="translate(-406 -2841)"/><use fill="#fff" xlink:href="#d" transform="translate(-406 -2841)"/><use fill="#fff" xlink:href="#e" transform="translate(-406 -2841)"/></svg>